<svg width="21" height="21" viewBox="0 0 21 21" xmlns="http://www.w3.org/2000/svg">
    <g fill="none" fill-rule="evenodd">
        <path d="M0 0h21v21H0z"/>
        <g fill-rule="nonzero">
            <path d="M6.11 14.443H2.767c-.562 0-1.017-.474-1.017-1.06V7.616c0-.585.455-1.06 1.017-1.06H6.11v7.887z" fill="#EF4452"/>
            <path d="M6.11 14.443V6.556l9.508-4.703c.675-.333 1.452.18 1.452.959v15.376c0 .779-.777 1.292-1.452.959L6.11 14.443z" fill="#F56570"/>
            <path d="M17.07 8.528h1.163c.562 0 1.017.475 1.017 1.06v1.823c0 .586-.455 1.06-1.017 1.06H17.07" fill="#E32939"/>
        </g>
    </g>
</svg>
